<?xml version="1.0" encoding="utf-8"?>
<!-- Generator: Adobe Illustrator 25.3.0, SVG Export Plug-In . SVG Version: 6.00 Build 0)  -->
<!DOCTYPE svg PUBLIC "-//W3C//DTD SVG 1.1//EN" "http://www.w3.org/Graphics/SVG/1.1/DTD/svg11.dtd" [
	<!ENTITY ns_extend "http://ns.adobe.com/Extensibility/1.0/">
	<!ENTITY ns_ai "http://ns.adobe.com/AdobeIllustrator/10.0/">
	<!ENTITY ns_graphs "http://ns.adobe.com/Graphs/1.0/">
	<!ENTITY ns_vars "http://ns.adobe.com/Variables/1.0/">
	<!ENTITY ns_imrep "http://ns.adobe.com/ImageReplacement/1.0/">
	<!ENTITY ns_sfw "http://ns.adobe.com/SaveForWeb/1.0/">
	<!ENTITY ns_custom "http://ns.adobe.com/GenericCustomNamespace/1.0/">
	<!ENTITY ns_adobe_xpath "http://ns.adobe.com/XPath/1.0/">
]>
<svg version="1.1" id="Capa_1" xmlns:x="&ns_extend;" xmlns:i="&ns_ai;" xmlns:graph="&ns_graphs;"
	 xmlns="http://www.w3.org/2000/svg" xmlns:xlink="http://www.w3.org/1999/xlink" x="0px" y="0px" width="476px" height="192px"
	 viewBox="0 0 476 192" style="enable-background:new 0 0 476 192;" xml:space="preserve">
<style type="text/css">
	.st0{fill-rule:evenodd;clip-rule:evenodd;fill:#FBFFFF;}
	.st1{fill-rule:evenodd;clip-rule:evenodd;fill:#FBC722;}
	.st2{fill-rule:evenodd;clip-rule:evenodd;fill:#9A91C7;}
</style>
<metadata>
	<sfw  xmlns="&ns_sfw;">
		<slices></slices>
		<sliceSourceBounds  bottomLeftOrigin="true" height="178.1" width="464.6" x="188.7" y="208.6"></sliceSourceBounds>
	</sfw>
</metadata>
<path class="st0" d="M419.5,17.7c2.8-3.8,4.7-6.2,6.9-6.7c1.3-0.3,2.5-0.5,3.4-0.5s1.5-0.3,1.5-0.8S430.7,9,429.6,9
	c-3.5,0-7.4,0.3-9.2,0.3c-1.8,0-5.8-0.3-9.4-0.3c-1.3,0-2,0.3-2,0.8c0,0.6,0.6,0.8,1.1,0.8c0.8,0,2.1,0,3,0.3
	c0.9,0.3,1.6,0.9,1.6,1.5c0,0.7-0.3,2.1-1,3.3c-1.4,2.4-10.1,14.3-12.8,18.1c-3.7-5.8-7.9-12.1-12-18.9c-0.6-0.9-0.9-2-0.9-2.5
	c0-0.5,0.3-1.1,1.1-1.4c0.8-0.3,2-0.3,2.5-0.3c0.8,0,1.4-0.2,1.4-0.8c0-0.6-0.6-0.8-1.9-0.8c-3.5,0-8.8,0.3-10.1,0.3
	C376.6,9.3,369,9,366.7,9c-1.2,0-1.9,0.2-1.9,0.7c0,0.6,0.4,0.9,1,0.9c0.9,0,2.5,0.2,4,0.6c3.3,0.9,5.6,3,7.8,6.4L393.8,42l-18,23.4
	c-3.2,4.1-5,5.7-7.7,6.4c-1.4,0.3-2.8,0.4-3.5,0.4c-0.8,0-1.3,0.3-1.3,0.8c0,0.5,0.5,0.8,1.4,0.8h1.6c1.5,0,6.1-0.3,7.9-0.3
	c2.4,0,8.3,0.3,8.9,0.3h1.7c1.2,0,1.9-0.2,1.9-0.8c0-0.5-0.6-0.8-1.1-0.8c-0.8,0-1.6-0.1-2.2-0.2c-0.8-0.2-1.7-0.7-1.8-1.5
	c-0.1-0.9,0.4-2.2,1.3-3.6l14-20.5c4.3,6.4,9.7,14.9,14.9,23.3c0.7,1.1,0.3,1.9-0.2,2c-0.8,0.2-1.3,0.4-1.3,0.9
	c0,0.6,0.8,0.8,3.2,0.9c7.3,0.2,14.7,0.2,17,0.2h2.8c1,0,1.8-0.3,1.8-0.9c0-0.5-0.6-0.7-1.2-0.7c-0.8,0-2-0.1-3.6-0.5
	c-2.5-0.7-3.9-1.7-5.5-3.6c-2.4-2.7-17.6-26-20.6-30.2L419.5,17.7z M321.6,48.9c0,7.9,0,14.7-0.5,18.3c-0.4,2.5-0.8,4.4-2.7,4.7
	c-0.8,0.2-2,0.3-3.4,0.3c-1.1,0-1.5,0.3-1.5,0.7c0,0.6,0.7,0.9,1.9,0.9c3.8,0,9.7-0.3,11.9-0.3c5.6,0,11.9,0.5,26.1,0.5
	c3.6,0,4.4,0,5.1-2.2c0.5-1.7,1.2-7.5,1.2-9.5c0-0.9,0-1.5-0.8-1.5c-0.7,0-0.8,0.3-1,1.3c-0.7,3.5-1.8,5.3-4.2,6.3
	c-2.5,1-6.4,1-8.9,1c-9.6,0-11.1-1.3-11.3-7.2c-0.1-2.5,0-10.4,0-13.3v-6.8c0-0.5,0.1-0.9,0.6-0.9c2.3,0,11.6,0.1,13.4,0.3
	c3.5,0.3,4.8,1.6,5.3,3.3c0.3,1.1,0.3,2.2,0.4,3.1c0,0.4,0.2,0.8,0.8,0.8c0.8,0,0.8-0.9,0.8-1.6c0-0.6,0.2-4,0.4-5.7
	c0.3-4.4,0.8-5.7,0.8-6.3c0-0.5-0.3-0.7-0.7-0.7c-0.5,0-0.8,0.4-1.5,1.1c-0.8,0.9-2.3,1.1-4.5,1.3c-2.2,0.2-13,0.2-15.1,0.2
	c-0.6,0-0.7-0.3-0.7-0.9V14.4c0-0.6,0.2-0.9,0.7-0.9c1.9,0,11.8,0.2,13.4,0.3c4.7,0.5,5.7,1.5,6.3,3.1c0.5,1,0.6,2.5,0.6,3.1
	c0,0.8,0.2,1.2,0.8,1.2c0.7,0,0.8-0.5,0.9-0.9c0.2-1,0.4-4.8,0.5-5.7c0.3-3.9,0.8-5,0.8-5.6c0-0.4-0.1-0.8-0.6-0.8
	c-0.5,0-1,0.3-1.5,0.3c-0.8,0.2-2.3,0.3-4.1,0.5c-1.8,0.1-20.6,0.1-23.6,0.1c-2.6,0-8.6-0.3-13.6-0.3c-1.4,0-2.1,0.2-2.1,0.8
	c0,0.6,0.6,0.8,1.6,0.8c1.3,0,2.9,0.1,3.7,0.3c3.1,0.6,3.9,2,4.1,4.9c0.2,2.7,0.2,5.1,0.2,18.2V48.9z M280.9,33.9
	c0-13,0-15.4,0.2-18.2c0.2-3,0.9-4.5,3.5-4.9c1.1-0.2,2.6-0.3,3.7-0.3c1.1,0,1.7-0.2,1.7-0.8c0-0.6-0.7-0.8-2-0.8
	c-3.7,0-10.6,0.3-12.8,0.3c-2.5,0-8.5-0.3-12.9-0.3c-1.4,0-2.1,0.2-2.1,0.8c0,0.6,0.6,0.8,1.6,0.8c1.2,0,2.4,0.1,3.1,0.3
	c3.1,0.6,3.9,2,4.1,4.9c0.2,2.7,0.2,5.1,0.2,18.2v15.1c0,7.9,0,14.7-0.5,18.3c-0.4,2.5-0.8,4.4-2.7,4.7c-0.8,0.2-2,0.3-3.4,0.3
	c-1.1,0-1.5,0.3-1.5,0.7c0,0.6,0.7,0.9,1.9,0.9c3.8,0,9.7-0.3,11.9-0.3c7.6,0,13.9,0.5,27.4,0.5c4.9,0,5.4-0.4,5.9-2.3
	c0.8-2.5,1.4-8.9,1.4-9.9c0-1-0.1-1.5-0.8-1.5c-0.8,0-0.9,0.5-1,1.3c-0.2,1.6-1.3,4-2.5,5.1c-2.4,2.3-6,2.4-11,2.4
	c-7.4,0-9.8-0.6-11.4-1.9c-2-1.5-2-7.5-2-18.4V33.9z M201.8,52.6c0,9.6,2.8,14.4,6.5,17.5c5.3,4.4,12.3,4.6,16.1,4.6
	c4.7,0,9.9-0.7,15.1-4.8c6.1-4.7,6.9-12.5,6.9-19.9V43c0-10,0-11.9,0.1-14c0.1-2.3,0.7-3.4,2.7-3.8c0.9-0.1,1.3-0.2,2.1-0.2
	c0.9,0,1.3-0.1,1.3-0.6c0-0.5-0.5-0.6-1.5-0.6c-2.8,0-7.4,0.2-8.3,0.2c-0.1,0-4.6-0.2-8.3-0.2c-1,0-1.5,0.1-1.5,0.6
	c0,0.5,0.4,0.6,1.2,0.6c0.8,0,2,0.1,2.6,0.2c2.4,0.5,3,1.5,3.1,3.8c0.1,2.1,0.1,4,0.1,14v8.2c0,6.8-0.2,12.7-4.2,16.4
	c-2.9,2.6-6.8,3.6-10,3.6c-2.5,0-5.8-0.3-9.1-2.7c-3.6-2.6-5.7-6.7-5.7-16.2V43c0-10,0-11.9,0.1-14c0.1-2.3,0.7-3.4,2.7-3.8
	c0.9-0.1,1.3-0.2,2.1-0.2c0.7,0,1.2-0.1,1.2-0.6c0-0.5-0.5-0.6-1.6-0.6c-2.6,0-7.2,0.2-8.9,0.2c-2.2,0-6.7-0.2-10.6-0.2
	c-1.1,0-1.6,0.1-1.6,0.6c0,0.5,0.4,0.6,1.2,0.6c1,0,2.2,0.1,2.8,0.2c2.4,0.5,3,1.5,3.1,3.8c0.1,2.1,0.1,4,0.1,14V52.6z M181.2,62.5
	c0,6.9-5.5,8.4-8.8,8.4c-1.7,0-3.3-0.1-5.3-0.8c-2.3-0.9-2.5-2-2.5-6.3V48.2c0-0.3,0.1-0.5,0.4-0.5c1.1,0,1.8,0,3.1,0.1
	c2.8,0.1,4.5,0.6,6,1.6C179.7,52.9,181.2,58.4,181.2,62.5z M164.6,27.8c0-0.7,0.1-1,0.7-1.1c0.7-0.1,1.4-0.1,2.4-0.1
	c6.2,0,9.1,5.8,9.1,10.2c0,3.2-1.1,5.6-3,7c-1.2,1-2.8,1.3-5.2,1.3c-1.7,0-2.8-0.1-3.4-0.2c-0.3-0.1-0.5-0.2-0.5-0.7V27.8z
	 M155.9,54.6c0,6.1,0,11.3-0.4,14c-0.3,1.9-0.7,3.4-2.1,3.6c-0.7,0.1-1.5,0.3-2.6,0.3c-0.9,0-1.2,0.2-1.2,0.5c0,0.5,0.5,0.7,1.5,0.7
	c2.9,0,7.5-0.2,9.1-0.2c2.2,0,8.8,0.4,10.5,0.4c13.3,0,19.4-7.3,19.4-14.4c0-7.7-7.3-12.4-13.2-14.2c4-2.9,7.4-6.1,7.4-11.5
	c0-3.5-2.3-9.9-15.5-9.9c-2.5,0-5.3,0.2-8.9,0.2c-1.5,0-6-0.2-9.9-0.2c-1.1,0-1.6,0.1-1.6,0.6c0,0.5,0.4,0.6,1.2,0.6
	c1,0,2.2,0.1,2.8,0.2c2.4,0.5,3,1.5,3.1,3.8c0.1,2.1,0.1,4,0.1,14V54.6z M127.7,54.6c0,6.4,0,11.6-0.4,14.4c-0.2,1.9-0.7,3-2.1,3.3
	c-0.7,0.1-1.5,0.3-2.6,0.3c-0.9,0-1.2,0.2-1.2,0.5c0,0.5,0.5,0.7,1.5,0.7c2.9,0,7.5-0.2,9.1-0.2c2,0,6.5,0.2,11.3,0.2
	c0.8,0,1.4-0.2,1.4-0.7c0-0.3-0.4-0.5-1.2-0.5c-1.1,0-2.7-0.1-3.7-0.3c-2.2-0.3-2.7-1.5-2.9-3.2c-0.3-2.8-0.3-8-0.3-14.4V43
	c0-10,0-11.9,0.1-14c0.1-2.3,0.7-3.4,2.7-3.8c0.9-0.1,1.5-0.2,2.2-0.2c0.7,0,1.2-0.1,1.2-0.7c0-0.4-0.6-0.5-1.5-0.5
	c-2.8,0-7,0.2-8.9,0.2c-2.1,0-6.7-0.2-9.4-0.2c-1.2,0-1.7,0.1-1.7,0.5c0,0.5,0.4,0.7,1.2,0.7c0.9,0,1.8,0.1,2.6,0.3
	c1.6,0.3,2.3,1.5,2.5,3.7c0.1,2.1,0.1,4,0.1,14V54.6z M76,28.2c0-0.5,0.1-0.8,0.7-0.9c0.7-0.2,2-0.3,3.8-0.3
	c4.3,0,11.1,2.7,11.1,12.1c0,5.4-2.1,8.4-4.3,9.9c-1.3,0.9-2.2,1.1-5.2,1.1c-1.8,0-4-0.2-5.5-0.7c-0.5-0.2-0.7-0.5-0.7-1.2V28.2z
	 M67.5,54.6c0,6.1,0,11.3-0.4,14c-0.3,1.9-0.7,3.4-2.1,3.6c-0.7,0.1-1.5,0.3-2.6,0.3c-0.9,0-1.2,0.2-1.2,0.5c0,0.5,0.5,0.7,1.5,0.7
	c2.9,0,7.5-0.2,8.9-0.2c1.1,0,6.5,0.2,10.7,0.2c0.9,0,1.5-0.2,1.5-0.7c0-0.3-0.3-0.5-0.9-0.5c-0.9,0-2.5-0.1-3.6-0.3
	c-2.2-0.3-2.6-1.7-2.8-3.6c-0.4-2.8-0.4-8-0.4-14.1v-0.9c0-0.4,0.2-0.5,0.6-0.5l6.3,0.1c0.5,0,0.9,0.1,1.3,0.5
	c0.9,1,4.3,5.5,7.2,9.1c4.1,5.1,6.8,8.2,9.9,9.7c1.9,0.9,3.7,1.3,7.8,1.3h6.9c0.9,0,1.4-0.1,1.4-0.7c0-0.3-0.3-0.5-0.9-0.5
	c-0.6,0-1.2-0.1-2-0.2c-1.1-0.2-4.1-0.7-8.1-4.5c-4.3-4.1-9.3-10-15.7-17.3c7.3-5.4,9.6-9.9,9.6-14.8c0-4.4-2.9-7.8-4.9-9
	c-3.9-2.4-8.8-2.8-13.3-2.8c-2.2,0-7.8,0.2-10.2,0.2c-1.5,0-6.1-0.2-9.9-0.2c-1.1,0-1.6,0.1-1.6,0.6c0,0.5,0.4,0.6,1.2,0.6
	c1,0,2.2,0.1,2.8,0.2c2.4,0.5,3,1.5,3.1,3.8c0.1,2.1,0.1,4,0.1,14V54.6z M27.2,54.6c0,6.1,0,11.3-0.4,14c-0.2,1.9-0.7,3.4-2.1,3.6
	c-0.7,0.1-1.5,0.3-2.6,0.3c-0.9,0-1.2,0.2-1.2,0.5c0,0.5,0.5,0.7,1.5,0.7c2.9,0,7.5-0.2,9.1-0.2c2,0,6.6,0.2,11.4,0.2
	c0.8,0,1.4-0.2,1.4-0.7c0-0.3-0.4-0.5-1.2-0.5c-1.1,0-2.7-0.1-3.7-0.3c-2.2-0.3-2.6-1.7-2.8-3.6c-0.4-2.8-0.4-8-0.4-14.1v-27
	l9.1,0.2c6.5,0.1,8.4,2,8.6,3.7l0.1,0.7c0.1,1,0.2,1.3,0.8,1.3c0.4,0,0.6-0.4,0.7-1.1c0-1.7,0.2-6.3,0.2-7.7c0-1-0.1-1.4-0.6-1.4
	c-0.6,0-2.3,0.7-7,0.7H19.4c-2.4,0-5.2-0.1-7.3-0.3C10.4,23.6,9.6,23,9.1,23c-0.4,0-0.7,0.4-0.9,1.3c-0.1,0.5-1.5,6.5-1.5,7.6
	c0,0.7,0.1,1.1,0.7,1.1c0.4,0,0.7-0.3,0.8-0.8c0.1-0.5,0.5-1.3,1.2-2.3c1.1-1.5,2.8-1.8,7-1.9l10.8-0.3V54.6z"/>
<polygon class="st1" points="70.7,186.4 102.4,133.7 134.1,81 70.7,81 7.2,81 39,133.7 "/>
<polygon class="st2" points="201.9,186.4 233.6,133.7 265.3,81 201.9,81 138.5,81 170.2,133.7 "/>
<path class="st1" d="M420.5,98.7h2.9c0.1,1,0.4,1.8,1,2.4c0.6,0.6,1.5,0.9,2.5,0.9c1.1,0,2-0.3,2.7-0.9c0.7-0.6,1-1.4,1-2.4
	c0-0.9-0.2-1.6-0.7-2c-0.5-0.5-1.5-0.9-3.1-1.4c-0.1,0-0.2-0.1-0.4-0.1c-1.9-0.4-3.2-1.2-4-2.2c-0.4-0.4-0.7-0.9-0.8-1.4
	c-0.2-0.5-0.3-1-0.3-1.6c0-1.7,0.6-3,1.7-4.1c1.1-1,2.6-1.5,4.4-1.5c1.7,0,3.1,0.5,4.1,1.4c1,0.9,1.6,2.2,1.7,3.8h-3
	c-0.1-0.8-0.3-1.4-0.9-1.9c-0.5-0.5-1.2-0.7-2.1-0.7c-0.9,0-1.6,0.3-2.2,0.8c-0.6,0.5-0.8,1.2-0.8,2.1c0,0.3,0.1,0.6,0.2,0.8
	c0.1,0.3,0.3,0.5,0.5,0.7c0.4,0.5,1.4,0.8,2.8,1.2c0.7,0.2,1.2,0.3,1.5,0.4c1.5,0.5,2.6,1.2,3.3,2.1c0.8,0.9,1.1,2,1.1,3.3
	c0,1.9-0.6,3.4-1.8,4.5c-1.2,1.2-2.8,1.7-4.8,1.7c-1.9,0-3.4-0.6-4.6-1.7C421.1,102,420.5,100.5,420.5,98.7 M413.7,104.3h-11.5V84.9
	h11.5v2.6h-8.3v5.8h8.3v2.5h-8.3v5.8h8.3V104.3z M383.7,104.3h-3.2V84.9h6.4c2.7,0,4.7,0.5,6.1,1.6c1.4,1.1,2.1,2.6,2.1,4.7
	c0,1.6-0.6,2.9-1.8,4c-1.2,1.1-2.7,1.6-4.5,1.7l6.3,7.5h-4l-7.4-9V104.3z M383.7,95h1.6c2.2,0,3.9-0.3,5-0.9
	c1.1-0.6,1.6-1.6,1.6-2.9c0-1.3-0.5-2.2-1.4-2.8c-0.9-0.6-2.4-0.9-4.4-0.9h-2.4V95z M350.8,94.5c0-1.4,0.3-2.7,0.9-3.9
	s1.5-2.3,2.6-3.3c1.1-0.9,2.3-1.6,3.6-2.1c1.3-0.5,2.7-0.7,4.2-0.7c1.6,0,3,0.2,4.3,0.7c1.3,0.5,2.5,1.2,3.6,2.1
	c1.1,1,2,2.1,2.5,3.3c0.6,1.2,0.9,2.5,0.9,3.9c0,1.4-0.2,2.7-0.7,3.8c-0.5,1.2-1.2,2.2-2.2,3.1c-1.2,1.1-2.4,1.9-3.9,2.5
	c-1.4,0.6-3,0.8-4.6,0.8c-1.7,0-3.2-0.3-4.6-0.8c-1.4-0.6-2.7-1.4-3.8-2.5c-0.9-0.9-1.7-2-2.2-3.1C351,97.1,350.8,95.8,350.8,94.5z
	 M354.1,94.5c0,1,0.2,2,0.6,2.9c0.4,0.9,0.9,1.7,1.7,2.3c0.8,0.7,1.6,1.2,2.6,1.6c1,0.4,2,0.6,3.1,0.6c2.3,0,4.2-0.7,5.8-2.1
	c1.5-1.4,2.3-3.2,2.3-5.3c0-0.9-0.2-1.8-0.6-2.6c-0.4-0.8-0.9-1.6-1.6-2.3c-0.8-0.8-1.7-1.4-2.7-1.8c-1-0.4-2-0.6-3.2-0.6
	c-1,0-2,0.2-3,0.5c-0.9,0.3-1.8,0.9-2.5,1.5c-0.8,0.7-1.4,1.5-1.8,2.4C354.4,92.6,354.1,93.6,354.1,94.5z M331.7,98.7h2.9
	c0.1,1,0.4,1.8,1,2.4c0.6,0.6,1.5,0.9,2.5,0.9c1.1,0,2-0.3,2.7-0.9c0.7-0.6,1-1.4,1-2.4c0-0.9-0.2-1.6-0.7-2
	c-0.5-0.5-1.5-0.9-3.1-1.4c-0.1,0-0.2-0.1-0.4-0.1c-1.9-0.4-3.2-1.2-4-2.2c-0.4-0.4-0.7-0.9-0.8-1.4c-0.2-0.5-0.3-1-0.3-1.6
	c0-1.7,0.6-3,1.7-4.1c1.1-1,2.6-1.5,4.4-1.5c1.7,0,3.1,0.5,4.1,1.4c1,0.9,1.6,2.2,1.7,3.8h-3c-0.1-0.8-0.3-1.4-0.9-1.9
	c-0.5-0.5-1.2-0.7-2.1-0.7c-0.9,0-1.6,0.3-2.2,0.8c-0.6,0.5-0.8,1.2-0.8,2.1c0,0.3,0.1,0.6,0.2,0.8c0.1,0.3,0.3,0.5,0.5,0.7
	c0.4,0.5,1.4,0.8,2.8,1.2c0.7,0.2,1.2,0.3,1.5,0.4c1.5,0.5,2.6,1.2,3.3,2.1c0.8,0.9,1.1,2,1.1,3.3c0,1.9-0.6,3.4-1.8,4.5
	c-1.2,1.2-2.8,1.7-4.8,1.7c-1.9,0-3.4-0.6-4.6-1.7C332.3,102,331.7,100.5,331.7,98.7z M324.9,104.3h-11.5V84.9h11.5v2.6h-8.3v5.8
	h8.3v2.5h-8.3v5.8h8.3V104.3z M293.3,98.7h2.9c0.1,1,0.4,1.8,1,2.4c0.6,0.6,1.5,0.9,2.5,0.9c1.1,0,2-0.3,2.7-0.9
	c0.7-0.6,1-1.4,1-2.4c0-0.9-0.2-1.6-0.7-2c-0.5-0.5-1.5-0.9-3.1-1.4c-0.1,0-0.2-0.1-0.4-0.1c-1.9-0.4-3.2-1.2-4-2.2
	c-0.4-0.4-0.7-0.9-0.8-1.4c-0.2-0.5-0.3-1-0.3-1.6c0-1.7,0.6-3,1.7-4.1c1.1-1,2.6-1.5,4.4-1.5c1.7,0,3.1,0.5,4.1,1.4
	c1,0.9,1.6,2.2,1.7,3.8h-3c-0.1-0.8-0.3-1.4-0.9-1.9c-0.5-0.5-1.2-0.7-2.1-0.7c-0.9,0-1.6,0.3-2.2,0.8c-0.6,0.5-0.8,1.2-0.8,2.1
	c0,0.3,0.1,0.6,0.2,0.8c0.1,0.3,0.3,0.5,0.5,0.7c0.4,0.5,1.4,0.8,2.8,1.2c0.7,0.2,1.2,0.3,1.5,0.4c1.5,0.5,2.6,1.2,3.3,2.1
	c0.8,0.9,1.1,2,1.1,3.3c0,1.9-0.6,3.4-1.8,4.5c-1.2,1.2-2.8,1.7-4.8,1.7c-1.9,0-3.4-0.6-4.6-1.7C293.9,102,293.3,100.5,293.3,98.7z
	 M274.6,98.7l-2.5,5.7h-3.4l8.7-19.5h3.1l8.7,19.5h-3.5l-2.4-5.7H274.6z M282,95.9l-3.1-7.4l-3.2,7.4H282z"/>
<path class="st1" d="M11.3,8.3h238.5c2.1,0,3.8,1.4,3.8,3v3c0,1.7-1.7,3-3.8,3H11.3c-2.1,0-3.8-1.4-3.8-3v-3
	C7.6,9.7,9.3,8.3,11.3,8.3"/>
<path class="st0" d="M14.1,10.1h232.5c2,0,3.7,0.5,3.7,1.1v1.1c0,0.6-1.7,1.1-3.7,1.1H14.1c-2,0-3.7-0.5-3.7-1.1v-1.1
	C10.4,10.6,12.1,10.1,14.1,10.1"/>
<path class="st0" d="M456.2,8.8c2.1,0,4,0.3,5.8,1c1.8,0.7,3.4,1.7,4.8,3c1.4,1.3,2.5,2.7,3.2,4.4c0.7,1.7,1.1,3.4,1.1,5.2
	c0,1.9-0.4,3.6-1.1,5.2c-0.7,1.6-1.8,3.1-3.2,4.3c-1.5,1.3-3.1,2.3-5,3c-1.8,0.7-3.8,1.1-5.7,1.1c-2,0-3.9-0.3-5.7-1
	c-1.8-0.7-3.4-1.7-4.8-3c-1.4-1.3-2.5-2.8-3.3-4.4c-0.7-1.7-1.1-3.4-1.1-5.2c0-1.8,0.4-3.5,1.2-5.2c0.8-1.7,1.9-3.2,3.3-4.5
	c1.4-1.3,3-2.2,4.7-2.9C452.3,9.1,454.2,8.8,456.2,8.8 M469.6,22.5c0-1.7-0.3-3.2-1-4.7c-0.6-1.5-1.6-2.8-2.8-3.9
	c-1.3-1.2-2.7-2-4.4-2.6c-1.6-0.6-3.4-0.9-5.2-0.9c-1.8,0-3.5,0.3-5,0.9c-1.6,0.6-3,1.5-4.3,2.6c-1.3,1.2-2.3,2.5-3,4
	c-0.7,1.5-1,3-1,4.6c0,1.6,0.3,3.1,1,4.6c0.7,1.5,1.6,2.8,2.9,3.9c1.3,1.2,2.7,2,4.3,2.6c1.6,0.6,3.3,0.9,5.1,0.9
	c1.8,0,3.5-0.3,5.1-0.9c1.6-0.6,3.1-1.5,4.4-2.7c1.2-1.1,2.2-2.4,2.8-3.8C469.3,25.7,469.6,24.2,469.6,22.5z M456.7,14.4
	c2.4,0,4.2,0.4,5.4,1.1c1.2,0.7,1.7,1.8,1.7,3.3c0,1.1-0.4,2-1.1,2.8c-0.7,0.7-1.7,1.2-3,1.4l3.8,7.2h-3l-3.6-6.9h-4v6.9h-2.6V14.4
	H456.7z M456.2,16H453v5.6h3.2c1.8,0,3.1-0.2,3.8-0.6c0.7-0.4,1.1-1.1,1.1-2.1c0-1-0.4-1.8-1.2-2.2C459.2,16.2,457.9,16,456.2,16z"
	/>
</svg>
